<?xml version="1.0" standalone="no"?>
<!DOCTYPE svg PUBLIC "-//W3C//DTD SVG 20010904//EN"
 "http://www.w3.org/TR/2001/REC-SVG-20010904/DTD/svg10.dtd">
<svg version="1.0" xmlns="http://www.w3.org/2000/svg"
 width="260.000000pt" height="260.000000pt" viewBox="0 0 260.000000 260.000000"
 preserveAspectRatio="xMidYMid meet">
<metadata>
Created by potrace 1.11, written by Peter Selinger 2001-2013
</metadata>
<g transform="translate(0.000000,260.000000) scale(0.100000,-0.100000)"
fill="#000000" stroke="none">
<path d="M1106 2515 c2 -38 7 -97 10 -131 l6 -61 -77 -12 c-42 -7 -75 -15 -72
-17 3 -3 35 0 71 7 37 6 69 9 72 6 3 -2 6 -31 7 -63 l2 -58 -60 -17 c-121 -32
-115 -32 -115 -5 0 22 5 26 48 31 71 10 75 16 6 10 l-61 -6 -6 83 c-4 46 -7
103 -8 128 -1 25 -3 38 -6 30 -2 -9 -31 -24 -66 -35 -55 -18 -62 -23 -65 -49
-5 -42 7 -47 66 -30 30 9 56 13 60 10 3 -4 8 -35 10 -70 l4 -63 -68 -11 -69
-11 73 6 74 5 -4 -28 c-2 -20 -10 -30 -28 -34 -16 -4 -21 -8 -13 -13 7 -4 20
-3 30 3 10 5 101 30 203 55 102 25 193 48 202 51 13 4 18 -3 23 -33 18 -112
39 -192 61 -230 13 -23 24 -44 24 -46 0 -3 -53 -3 -117 0 -134 6 -203 -9 -326
-71 l-69 -35 7 150 c4 82 5 149 2 149 -3 0 -26 -9 -52 -20 -26 -11 -59 -20
-75 -20 -15 0 -33 -7 -40 -15 -7 -8 -28 -17 -47 -21 l-34 -6 20 -22 c17 -18
21 -35 21 -89 0 -52 -3 -67 -15 -67 -8 0 -19 -9 -25 -20 -9 -18 -8 -20 15 -20
22 0 25 -4 25 -33 0 -31 -3 -34 -46 -45 -42 -12 -46 -14 -40 -38 5 -19 4 -24
-6 -18 -10 6 -11 5 -1 -7 14 -18 16 -30 15 -126 0 -57 -5 -81 -22 -108 -18
-28 -19 -35 -6 -35 28 0 32 -83 7 -141 -17 -40 -20 -54 -10 -65 19 -23 2 -164
-24 -192 l-20 -22 37 0 c20 0 46 5 56 10 17 9 20 6 26 -25 3 -19 3 -50 0 -68
-7 -40 10 -144 30 -175 8 -12 10 -22 5 -22 -20 0 -18 -30 5 -63 l24 -36 -113
-4 c-61 -3 -126 -8 -143 -12 -23 -5 -39 -2 -57 10 -25 16 -36 16 -182 0 -120
-14 -162 -15 -181 -6 -14 6 -39 10 -57 10 -26 -1 -27 -2 -7 -6 14 -2 41 -8 61
-14 28 -9 72 -7 188 6 142 16 153 16 177 0 19 -12 35 -15 58 -9 36 8 250 8
316 0 25 -4 71 -8 103 -11 32 -2 65 -9 72 -15 7 -6 38 -14 67 -17 63 -6 119
17 160 65 24 28 25 29 37 10 13 -21 57 -20 71 2 6 10 13 4 26 -23 20 -42 31
-45 66 -18 24 19 24 19 37 0 8 -14 18 -18 31 -14 10 3 43 -1 71 -9 75 -23 130
-21 152 5 17 19 25 20 95 13 42 -3 86 -10 97 -14 51 -19 123 -22 154 -5 17 9
37 13 43 9 6 -4 70 -8 142 -10 72 -1 181 -6 243 -11 62 -4 109 -5 105 -2 -8 8
-170 19 -348 23 -72 2 -136 6 -142 10 -6 4 -26 0 -43 -9 -31 -17 -103 -14
-154 5 -11 4 -55 11 -97 14 -69 7 -78 6 -97 -13 -26 -26 -73 -27 -152 -5 l-57
16 14 27 c8 14 14 39 14 54 0 16 9 40 20 54 22 28 26 63 9 80 -16 16 9 220 32
261 11 18 19 40 19 47 0 8 12 39 27 70 20 41 35 57 58 65 16 5 45 19 64 31 28
17 32 23 19 30 -9 5 -29 4 -47 -1 -52 -15 -74 3 -106 83 -15 39 -30 88 -32
109 -5 33 -1 41 27 68 18 17 30 33 27 36 -3 4 -43 -1 -89 -9 -147 -28 -157
-28 -168 -7 -9 16 -8 18 5 14 9 -4 53 -3 100 1 l84 7 -33 66 c-62 125 -60 170
13 204 38 18 42 22 24 25 -12 2 -38 0 -57 -5 -30 -9 -37 -7 -54 12 -38 42 -70
112 -86 186 -28 138 -28 148 -9 160 17 10 16 11 -2 6 -11 -3 -67 -17 -124 -31
-57 -14 -105 -25 -106 -23 -2 2 -6 31 -10 64 l-7 61 55 7 c30 4 68 11 83 17
l29 9 -31 -4 c-17 -3 -54 -8 -82 -12 l-50 -6 -7 68 c-3 38 -10 96 -15 129 l-9
60 5 -70z m-186 -134 c0 -25 -5 -30 -44 -40 -24 -6 -51 -13 -60 -17 -13 -5
-16 0 -16 25 0 28 4 32 48 45 67 21 72 20 72 -13z m5 -424 l-7 -134 -83 -37
c-46 -20 -86 -36 -89 -36 -3 0 -6 16 -6 35 0 28 -4 35 -20 35 -11 0 -20 5 -20
10 0 6 9 10 20 10 18 0 20 7 20 76 0 62 -3 79 -17 90 -16 11 -16 13 9 19 15 4
32 13 39 21 6 8 26 14 43 15 17 0 49 9 71 18 22 10 42 17 44 15 2 -2 0 -64 -4
-137z m299 -123 c17 -12 18 -23 12 -121 -4 -59 -9 -109 -11 -111 -2 -2 -34
-12 -72 -21 -37 -10 -105 -37 -150 -59 -46 -23 -85 -42 -88 -42 -3 0 -4 55 -3
123 l3 122 75 18 c105 25 243 67 237 73 -2 2 -16 0 -30 -5 -22 -8 -28 -6 -41
15 -9 13 -26 24 -39 24 -12 0 -29 4 -37 10 -17 10 -15 11 60 33 l45 13 10 -29
c6 -16 19 -35 29 -43z m242 55 c8 -6 13 -14 11 -16 -9 -9 -229 -42 -243 -36
-15 5 -34 42 -34 65 0 15 247 3 266 -13z m72 -26 c-60 -25 -62 -84 -6 -197 16
-32 27 -60 25 -62 -8 -9 -162 -15 -173 -7 -12 8 -114 207 -114 221 0 4 48 16
108 25 59 10 121 21 137 26 48 15 63 10 23 -6z m-430 -20 c35 -6 63 -40 40
-48 -33 -10 -122 -35 -130 -35 -4 0 -8 13 -8 30 0 22 7 33 28 44 15 8 22 15
17 16 -27 1 -55 -32 -55 -66 0 -28 -4 -34 -22 -34 -12 0 -40 -9 -62 -19 -23
-11 -72 -31 -111 -46 -38 -14 -84 -33 -102 -42 -18 -10 -34 -15 -37 -13 -2 3
-6 23 -8 45 -3 40 -3 40 42 51 26 6 84 28 130 49 51 22 86 32 88 26 2 -7 15
-3 32 9 42 30 93 50 110 44 8 -3 30 -8 48 -11z m252 -245 c6 -20 17 -43 24
-51 23 -22 137 -257 131 -267 -3 -6 -33 4 -67 21 -65 33 -67 33 -184 3 -32 -8
-37 28 -24 167 6 66 8 124 5 129 -4 6 -3 58 1 117 l7 107 48 -95 c27 -52 53
-111 59 -131z m-460 -3 c0 -107 -1 -115 -19 -115 -11 0 -48 -13 -82 -30 -35
-16 -66 -26 -69 -22 -3 4 -4 55 -2 114 l4 107 81 30 c45 16 83 30 85 30 1 1 2
-51 2 -114z m-184 -71 c-3 -12 -16 -29 -30 -37 l-23 -16 1 74 c1 68 3 73 26
82 24 8 25 7 28 -36 2 -25 1 -55 -2 -67z m521 25 c-3 -22 -7 -42 -9 -44 -1 -1
-22 -6 -45 -10 -40 -6 -43 -5 -58 25 -9 18 -14 34 -12 37 6 6 96 31 116 32 10
1 12 -9 8 -40z m393 21 c0 -6 -12 -16 -26 -22 -25 -12 -26 -16 -21 -63 7 -59
52 -174 75 -192 13 -11 4 -13 -54 -13 l-69 0 -63 126 c-34 69 -60 129 -57 135
4 5 23 9 43 10 20 0 62 7 92 14 73 16 80 17 80 5z m-500 -81 c0 -8 -75 -39
-95 -39 -10 0 -15 11 -15 35 0 30 5 37 38 54 l37 19 17 -31 c9 -18 17 -35 18
-38z m-120 -13 c0 -31 -3 -34 -44 -45 -25 -6 -59 -11 -76 -11 -17 0 -47 -8
-68 -19 -20 -10 -51 -22 -69 -25 -34 -8 -30 3 -49 -141 -7 -54 2 -115 18 -115
5 0 32 18 58 40 39 33 87 60 106 60 2 0 4 -13 4 -30 0 -16 2 -30 5 -30 14 0
83 40 95 55 16 19 30 4 30 -32 0 -18 6 -23 28 -23 31 0 59 -15 44 -23 -5 -4
-74 -11 -153 -18 -97 -7 -159 -17 -191 -30 -26 -10 -62 -19 -82 -19 l-35 0 6
55 c4 36 2 60 -6 69 -10 12 -8 25 9 63 17 38 20 59 15 100 -6 50 -5 52 24 67
27 15 31 15 39 0 8 -15 17 -13 80 16 39 18 80 30 90 28 10 -3 38 5 63 18 57
30 59 30 59 -10z m-294 -11 c-6 -17 -86 -60 -86 -46 0 5 19 26 42 46 40 33 57
34 44 0z m511 -75 l-2 -100 -68 0 c-73 0 -125 -19 -162 -60 -11 -12 -37 -31
-57 -41 l-38 -19 0 28 c0 16 3 70 6 120 l7 91 71 17 c39 9 87 23 106 32 42 17
87 30 117 31 20 1 21 -2 20 -99z m-327 -24 c0 -24 -3 -64 -6 -89 -6 -39 -11
-47 -36 -56 -16 -6 -52 -29 -80 -52 -60 -51 -71 -43 -64 46 11 133 14 144 55
155 20 6 47 17 61 25 14 8 35 14 48 15 19 0 22 -5 22 -44z m533 -67 c56 -28
77 -48 77 -72 0 -16 -5 -18 -27 -13 -32 6 -292 -39 -340 -60 -19 -7 -33 -9
-33 -4 0 5 -18 13 -39 16 -35 6 -40 10 -46 41 -3 19 -5 36 -3 38 24 20 78 35
130 35 58 0 84 5 173 30 48 13 63 11 108 -11z m337 -18 c0 -5 -25 -20 -56 -32
-50 -21 -59 -29 -85 -81 -16 -32 -29 -64 -29 -72 0 -9 -9 -30 -20 -48 -11 -18
-20 -44 -20 -57 0 -14 -5 -64 -11 -113 l-12 -88 -38 22 c-27 15 -36 25 -29 32
5 5 10 30 10 55 0 31 8 59 25 86 13 22 25 48 25 58 0 23 37 96 62 124 30 32
17 53 -32 53 -28 0 -40 4 -41 15 -1 8 -2 20 -3 26 -1 8 27 11 89 10 50 -1 104
3 120 8 40 12 45 13 45 2z m-170 -85 c0 -8 -7 -19 -16 -27 -20 -16 -64 -103
-64 -125 0 -9 -10 -33 -22 -53 -13 -21 -25 -59 -28 -90 -5 -50 -7 -55 -34 -62
-16 -5 -37 -4 -47 1 -10 6 -52 10 -93 10 -57 0 -86 5 -120 22 -40 19 -48 20
-76 8 -18 -8 -44 -23 -59 -35 -14 -12 -38 -24 -52 -27 -26 -5 -26 -4 -33 76
-5 53 -15 100 -31 135 -14 29 -25 59 -25 66 0 8 29 14 90 18 52 4 111 15 138
26 117 47 472 90 472 57z m-688 -159 c15 -35 29 -92 33 -132 l6 -70 -58 -24
c-41 -17 -76 -24 -118 -24 l-60 1 49 -10 c44 -8 56 -6 108 17 36 16 66 24 76
19 27 -12 65 -4 93 20 14 12 41 28 59 36 28 12 36 11 76 -8 34 -17 63 -22 122
-22 42 0 82 -4 89 -8 15 -10 -139 -61 -335 -112 -37 -10 -48 -9 -75 8 -32 18
-33 18 -82 -5 -35 -16 -59 -22 -80 -17 -16 3 -41 7 -55 7 -35 3 -51 57 -54
184 -1 56 -5 105 -8 108 -3 4 -15 2 -26 -4 -12 -6 -33 -11 -48 -11 -26 0 -26
1 -11 18 10 10 17 26 17 35 0 13 9 17 38 17 20 0 55 9 77 19 22 11 63 20 90
20 l50 1 27 -63z m533 -224 c-15 -37 -35 -129 -35 -167 0 -23 -7 -48 -17 -60
-18 -21 -18 -21 5 -2 16 14 22 30 22 60 0 47 24 154 37 167 5 5 28 -1 55 -14
53 -25 61 -48 28 -90 -11 -14 -20 -37 -20 -52 0 -30 -28 -95 -41 -95 -4 0 -13
9 -19 20 l-11 21 -26 -21 c-34 -27 -38 -26 -63 17 -18 31 -24 35 -33 23 -19
-24 -54 -24 -67 1 -12 22 -12 22 -37 -10 -40 -50 -97 -74 -161 -68 -29 3 -60
11 -67 17 -12 10 -45 15 -169 22 -34 3 -45 10 -74 47 -27 36 -31 46 -20 57 17
17 37 19 75 10 25 -6 46 -2 88 18 30 14 55 21 55 16 0 -4 14 -13 31 -19 32
-11 80 -4 164 25 23 8 50 14 60 15 11 0 65 17 120 39 117 44 130 47 120 23z"/>
<path d="M610 531 c0 -6 -24 -12 -52 -14 l-53 -3 51 -2 c35 -1 55 3 64 13 9
10 9 15 1 15 -6 0 -11 -4 -11 -9z"/>
<path d="M2302 495 c20 -22 101 -30 168 -17 38 7 31 9 -51 8 -69 -1 -101 3
-115 13 -18 14 -18 14 -2 -4z"/>
<path d="M1040 474 c-32 -8 -90 -13 -137 -12 -44 2 -76 0 -70 -4 18 -12 156
-9 207 4 25 6 74 14 110 18 l65 7 -60 0 c-33 1 -85 -6 -115 -13z"/>
<path d="M1460 467 c4 -5 52 -7 106 -5 l99 3 34 -33 c18 -18 36 -31 38 -28 3
3 -11 19 -32 37 -36 32 -37 32 -145 33 -60 1 -105 -3 -100 -7z"/>
<path d="M1820 471 c19 -4 49 -15 67 -24 20 -11 52 -16 85 -15 l53 1 -60 6
c-34 3 -73 14 -88 24 -14 9 -41 16 -59 16 l-33 -1 35 -7z"/>
<path d="M33 463 c-7 -5 17 -9 55 -9 37 0 87 -4 112 -8 34 -6 58 -4 90 8 25 9
32 14 15 10 -36 -8 -107 -8 -195 1 -36 3 -70 2 -77 -2z"/>
<path d="M527 398 c-20 -11 -58 -24 -85 -28 l-47 -9 47 3 c25 2 66 13 90 25
59 28 81 27 133 -9 24 -17 59 -32 77 -35 l33 -5 -34 11 c-19 6 -54 24 -77 40
-49 33 -82 35 -137 7z"/>
<path d="M2265 316 c-27 -56 -42 -66 -102 -66 -17 0 -34 -4 -37 -9 -7 -11 83
-2 107 11 10 5 27 29 37 54 11 24 26 47 35 50 8 3 36 -1 62 -10 25 -9 48 -14
50 -12 6 5 -87 36 -108 36 -11 0 -27 -19 -44 -54z"/>
<path d="M1263 324 c3 -3 36 -12 73 -20 95 -19 227 -18 270 2 19 9 33 18 31
20 -2 3 -17 -2 -33 -11 -33 -17 -192 -21 -240 -6 -36 11 -108 22 -101 15z"/>
<path d="M939 261 c12 -11 40 -22 61 -26 52 -9 145 4 167 22 17 14 17 14 -2 8
-82 -29 -191 -29 -216 1 -6 8 -16 14 -22 14 -5 0 0 -9 12 -19z"/>
<path d="M550 205 c-51 -37 -161 -68 -220 -63 -27 3 -47 1 -44 -4 9 -13 96 -9
155 8 30 9 78 30 108 46 48 28 59 30 116 25 34 -3 90 -16 123 -27 34 -12 72
-19 84 -17 22 4 21 4 -2 6 -14 0 -53 10 -85 22 -33 11 -91 23 -130 25 -63 4
-74 2 -105 -21z"/>
<path d="M1480 150 c-19 -5 -67 -14 -107 -19 -65 -10 -191 -56 -180 -67 2 -2
28 7 58 20 99 45 342 78 409 56 29 -10 74 -10 197 -3 l158 10 -170 0 c-93 0
-206 3 -250 6 -44 3 -96 2 -115 -3z"/>
<path d="M2364 134 c-10 -8 -12 -12 -4 -8 8 5 46 11 85 15 l70 6 -66 2 c-46 1
-71 -4 -85 -15z"/>
</g>
</svg>
